<?xml version="1.0" standalone="yes"?>
<svg xmlns="http://www.w3.org/2000/svg" width="500" height="500">
<path style="fill:#ffffff; stroke:none;" d="M0 0L0 500L500 500L500 0L0 0z"/>
<path style="fill:#cdafae; stroke:none;" d="M90 197C77.6731 209.327 60.753 221.857 52 237L79 210L90 197z"/>
<path style="fill:#f53f3f; stroke:none;" d="M91 197C79.2292 208.771 65.9317 220.047 55.4684 233C43.8309 247.406 45.8309 272.153 63 281.721C70.0841 285.67 80.1882 284 88 284C97.1662 284 109.35 286.076 118 282.656C134.038 276.315 137.982 255.497 132.444 241C129.488 233.26 122.707 227.707 117 222C108.671 213.671 100.637 203.789 91 197z"/>
<path style="fill:#cdafae; stroke:none;" d="M92 197L93 198L92 197M93 198L94 199L93 198M94 199L95 200L94 199M95 200L96 201L95 200M96 201L97 202L96 201M97 202L98 203L97 202M98 203L99 204L98 203M99 204L100 205L99 204M100 205L101 206L100 205M101 206L102 207L101 206M102 207L103 208L102 207M103 208L104 209L103 208M104 209L105 210L104 209M105 210L106 211L105 210M106 211L107 212L106 211M107 212L108 213L107 212M108 213L109 214L108 213M109 214L110 215L109 214M110 215L111 216L110 215M90 216C80.8887 225.111 66.0162 235.423 62 248L63 248L90 216z"/>
<path style="fill:#ffffff; stroke:none;" d="M91 216C78.4233 228.577 43.4845 256.678 73 272C68.3877 255.866 69.7289 252.271 82 240C82.059 245.062 80.4251 249.854 81.3287 255C83.0858 265.006 92.2193 273.823 98.8148 261.996C103.042 254.415 100.924 248.023 101 240C112.937 251.97 114.282 256.311 110 272C137.296 256.177 106.722 227.075 91 216z"/>
<path style="fill:#cdafae; stroke:none;" d="M92 216L93 217L92 216M111 216L112 217L111 216M93 217L94 218L93 217M112 217L113 218L112 217M94 218L95 219L94 218M113 218L114 219L113 218M95 219L96 220L95 219M114 219L115 220L114 219M96 220L97 221L96 220M115 220L116 221L115 220z"/>
<path style="fill:#737373; stroke:none;" d="M274.667 220.333L275.333 220.667L274.667 220.333z"/>
<path style="fill:#252525; stroke:none;" d="M276.09 220.801C271.006 221.431 271.819 229.097 276.961 228.534C282.088 227.973 281.332 220.151 276.09 220.801z"/>
<path style="fill:#737373; stroke:none;" d="M278 220L279 221L278 220z"/>
<path style="fill:#cdafae; stroke:none;" d="M279 220L280 221L279 220M97 221L98 222L97 221M116 221L117 222L116 221z"/>
<path style="fill:#737373; stroke:none;" d="M237 221L237 264L238 264C238 251.781 241.71 232.226 237 221z"/>
<path style="fill:#252525; stroke:none;" d="M238 221L238 264L246 264C246 259.838 243.731 238.864 252.772 242.407C258.431 244.625 256 259.184 256 264L264 264C264 249.344 266.151 227.31 245 238L246 221L238 221z"/>
<path style="fill:#cdafae; stroke:none;" d="M280 221L281 222L280 221M98 222L99 223L98 222M117 222L118 223L117 222z"/>
<path style="fill:#737373; stroke:none;" d="M272 222L273 223L272 222z"/>
<path style="fill:#cdafae; stroke:none;" d="M99 223L100 224L99 223M118 223L119 224L118 223M271 223L271 226L272 226L271 223z"/>
<path style="fill:#737373; stroke:none;" d="M281 223L281 226L282 226L281 223z"/>
<path style="fill:#cdafae; stroke:none;" d="M100 224L101 225L100 224M119 224L120 225L119 224M157 224L158 225L157 224z"/>
<path style="fill:#252525; stroke:none;" d="M146 264C155.57 263.966 152.036 259.075 158.303 255.028C161.336 253.07 166.548 254 170 254C170.659 262.269 172.903 263.994 181 264C177.974 254.7 175.101 245.364 172.28 236C171.306 232.767 170.43 227.092 167.49 225.028C164.332 222.81 158.867 223.751 157.109 227.148C151.915 237.186 147.648 252.843 146 264z"/>
<path style="fill:#737373; stroke:none;" d="M168 224L169 225L168 224z"/>
<path style="fill:#cdafae; stroke:none;" d="M302 224L303 225L302 224z"/>
<path style="fill:#737373; stroke:none;" d="M303.667 224.333L304.333 224.667L303.667 224.333z"/>
<path style="fill:#252525; stroke:none;" d="M319 259L316 254C312.44 254.95 308.55 256.876 304.834 255.646C295.846 252.67 294.68 239.015 302.108 233.718C306.316 230.717 310.625 232.611 315 234L318 228C314.489 226.233 311.015 224.586 307 224.46C282.213 223.679 282.858 265.592 308 263.61C312.144 263.283 315.607 261.209 319 259z"/>
<path style="fill:#737373; stroke:none;" d="M308 224L308 225L311 225L308 224z"/>
<path style="fill:#cdafae; stroke:none;" d="M311 224L312 225L311 224M413 225L413 226L421 225L413 225M101 225L102 226L101 225M120 225L121 226L120 225z"/>
<path style="fill:#737373; stroke:none;" d="M157 225L158 226L157 225M299 225L300 226L299 225M313 225L314 226L313 225z"/>
<path style="fill:#252525; stroke:none;" d="M414 225L413 234C408.747 234.928 408.139 236.828 408 241L412 241C412 254.468 412.997 265.012 429 263L428 257C419.535 255.678 421 247.793 421 241L428 241L428 234L421 234L421 225L414 225z"/>
<path style="fill:#cdafae; stroke:none;" d="M102 226L103 227L102 226M121 226L122 227L121 226M169 226L170 227L169 226M281 226L282 227L281 226M297 226L298 227L297 226M315 226L316 227L315 226z"/>
<path style="fill:#737373; stroke:none;" d="M413 226L413 229L414 229L413 226z"/>
<path style="fill:#cdafae; stroke:none;" d="M103 227L104 228L103 227M122 227L123 228L122 227M156 227L157 228L156 227z"/>
<path style="fill:#737373; stroke:none;" d="M169 227L170 228L169 227z"/>
<path style="fill:#cdafae; stroke:none;" d="M272 227L273 228L272 227z"/>
<path style="fill:#737373; stroke:none;" d="M280 227L281 228L280 227M316 227L317 228L316 227z"/>
<path style="fill:#cdafae; stroke:none;" d="M104 228L105 229L104 228M123 228L124 229L123 228z"/>
<path style="fill:#737373; stroke:none;" d="M156 228L157 229L156 228z"/>
<path style="fill:#cdafae; stroke:none;" d="M273 228L274 229L273 228z"/>
<path style="fill:#737373; stroke:none;" d="M279 228L280 229L279 228z"/>
<path style="fill:#cdafae; stroke:none;" d="M294 228L295 229L294 228M105 229L106 230L105 229M124 229L125 230L124 229M170 229L171 230L170 229M275 229L275 230L278 230L275 229M293 229L294 230L293 229z"/>
<path style="fill:#737373; stroke:none;" d="M318 229L319 230L318 229z"/>
<path style="fill:#cdafae; stroke:none;" d="M106 230L107 231L106 230M125 230L126 231L125 230M155 230L156 231L155 230z"/>
<path style="fill:#737373; stroke:none;" d="M170 230L171 231L170 230z"/>
<path style="fill:#cdafae; stroke:none;" d="M292 230L293 231L292 230z"/>
<path style="fill:#737373; stroke:none;" d="M317 230L318 231L317 230z"/>
<path style="fill:#cdafae; stroke:none;" d="M107 231L108 232L107 231M126 231L127 232L126 231z"/>
<path style="fill:#737373; stroke:none;" d="M155 231L156 232L155 231M162 231L162 233L164 231L162 231M306.667 231.333L307.333 231.667L306.667 231.333M316 231L317 232L316 231z"/>
<path style="fill:#cdafae; stroke:none;" d="M108 232L109 233L108 232M127 232L128 233L127 232M163 232L162 234L164 234L163 232M171 232L172 233L171 232z"/>
<path style="fill:#737373; stroke:none;" d="M291 232L292 233L291 232M303 232L304 233L303 232z"/>
<path style="fill:#cdafae; stroke:none;" d="M310 232L311 233L310 232z"/>
<path style="fill:#737373; stroke:none;" d="M311 232L312 233L311 232M315 232L316 233L315 232z"/>
<path style="fill:#cdafae; stroke:none;" d="M109 233L110 234L109 233M128 233L129 234L128 233z"/>
<path style="fill:#737373; stroke:none;" d="M171 233L172 234L171 233z"/>
<path style="fill:#cdafae; stroke:none;" d="M290 233L291 234L290 233z"/>
<path style="fill:#737373; stroke:none;" d="M301 233L302 234L301 233z"/>
<path style="fill:#cdafae; stroke:none;" d="M312 233L313 234L312 233M412 233L413 234L412 233M110 234L111 235L110 234M154 234L155 235L154 234z"/>
<path style="fill:#ffffff; stroke:none;" d="M162 234L159 247L167 247L164 234L162 234z"/>
<path style="fill:#cdafae; stroke:none;" d="M184 234L184 264L185 264L184 234z"/>
<path style="fill:#252525; stroke:none;" d="M185 234L185 264L193 264L194.742 246.059L205 234L192 240L192 234L185 234z"/>
<path style="fill:#cdafae; stroke:none;" d="M198 234L199 235L198 234z"/>
<path style="fill:#737373; stroke:none;" d="M199 234L200 235L199 234z"/>
<path style="fill:#cdafae; stroke:none;" d="M218 234L219 235L218 234z"/>
<path style="fill:#737373; stroke:none;" d="M219.667 234.333L220.333 234.667L219.667 234.333z"/>
<path style="fill:#252525; stroke:none;" d="M231 261C228.537 254.32 222.57 258.666 218.434 253.851C212.078 246.45 221.132 240.806 228 242L231 237C206.543 224.183 198.452 265.405 223 263.609C225.906 263.396 228.445 262.282 231 261z"/>
<path style="fill:#737373; stroke:none;" d="M225 234L226 235L225 234z"/>
<path style="fill:#cdafae; stroke:none;" d="M226 234L227 235L226 234M251 234L252 235L251 234z"/>
<path style="fill:#737373; stroke:none;" d="M252.667 234.333L253.333 234.667L252.667 234.333M257 234L258 235L257 234z"/>
<path style="fill:#cdafae; stroke:none;" d="M258 234L259 235L258 234z"/>
<path style="fill:#737373; stroke:none;" d="M272 234L272 264L273 264L272 234z"/>
<path style="fill:#252525; stroke:none;" d="M273 234L273 264L281 264L281 234L273 234z"/>
<path style="fill:#737373; stroke:none;" d="M290 234L291 235L290 234M300 234L301 235L300 234z"/>
<path style="fill:#252525; stroke:none;" d="M325 234L325 264L334 264L335.179 246.059L345 234C340.069 234.434 336.56 235.6 334 240L333 240L332 234L325 234z"/>
<path style="fill:#cdafae; stroke:none;" d="M332.333 234.667L332.667 235.333L332.333 234.667M338 234L339 235L338 234z"/>
<path style="fill:#737373; stroke:none;" d="M339.667 234.333L340.333 234.667L339.667 234.333z"/>
<path style="fill:#cdafae; stroke:none;" d="M345 234L346 235L345 234M357 234L358 235L357 234z"/>
<path style="fill:#737373; stroke:none;" d="M358 234L359 235L358 234z"/>
<path style="fill:#252525; stroke:none;" d="M372 261L370 256C363.939 257.125 359.969 257.21 356 252C360.152 252 369.008 253.676 372.396 250.972C375.519 248.479 373.139 241.694 371.272 239.109C367.626 234.059 360.299 233.244 355.04 236C346.389 240.534 344.407 253.953 352.214 260.348C358.031 265.114 365.795 264.114 372 261z"/>
<path style="fill:#737373; stroke:none;" d="M363.667 234.333L364.333 234.667L363.667 234.333z"/>
<path style="fill:#cdafae; stroke:none;" d="M365 234L366 235L365 234M387 234L388 235L387 234z"/>
<path style="fill:#737373; stroke:none;" d="M388.667 234.333L389.333 234.667L388.667 234.333z"/>
<path style="fill:#252525; stroke:none;" d="M380 238L382 243C387.235 241.804 392.939 239.475 395 246C390.13 246.212 383.722 246.836 380.603 251.133C376.821 256.346 380.453 264.012 387 263.756C390.6 263.615 393.882 261.593 397 260L397 264L404 264C404 251.32 406.434 230.267 387.002 235.042C384.435 235.673 382.288 236.717 380 238z"/>
<path style="fill:#737373; stroke:none;" d="M395 234L396 235L395 234z"/>
<path style="fill:#cdafae; stroke:none;" d="M396 234L397 235L396 234z"/>
<path style="fill:#737373; stroke:none;" d="M408.667 234.333L409.333 234.667L408.667 234.333z"/>
<path style="fill:#cdafae; stroke:none;" d="M428 234L428 241L429 241L428 234M442 234L443 235L442 234z"/>
<path style="fill:#737373; stroke:none;" d="M443 234L444 235L443 234z"/>
<path style="fill:#252525; stroke:none;" d="M457 261L455 256C448.619 257.184 444.439 257.177 440 252L458 252C458 248.743 458.36 245.158 457.347 242.015C450.386 220.405 416.43 249.334 439.015 261.558C441.381 262.838 444.305 263.649 447 263.653C450.482 263.658 453.859 262.351 457 261z"/>
<path style="fill:#737373; stroke:none;" d="M448.667 234.333L449.333 234.667L448.667 234.333z"/>
<path style="fill:#cdafae; stroke:none;" d="M450 234L451 235L450 234M111 235L112 236L111 235M129 235L130 236L129 235z"/>
<path style="fill:#737373; stroke:none;" d="M154 235L155 236L154 235M161.333 235.667L161.667 236.333L161.333 235.667M164 235L165 236L164 235z"/>
<path style="fill:#cdafae; stroke:none;" d="M172 235L173 236L172 235M192 235L192 238L193 238L192 235M196 235L197 236L196 235z"/>
<path style="fill:#737373; stroke:none;" d="M204.333 235.667L204.667 236.333L204.333 235.667z"/>
<path style="fill:#cdafae; stroke:none;" d="M215 235L216 236L215 235z"/>
<path style="fill:#737373; stroke:none;" d="M228 235L229 236L228 235z"/>
<path style="fill:#cdafae; stroke:none;" d="M229 235L230 236L229 235z"/>
<path style="fill:#737373; stroke:none;" d="M249 235L250 236L249 235z"/>
<path style="fill:#cdafae; stroke:none;" d="M260 235L261 236L260 235M289 235L290 236L289 235z"/>
<path style="fill:#737373; stroke:none;" d="M299 235L300 236L299 235M337 235L338 236L337 235M355 235L356 236L355 235M367 235L368 236L367 235M384 235L385 236L384 235M398 235L399 236L398 235z"/>
<path style="fill:#cdafae; stroke:none;" d="M439 235L440 236L439 235z"/>
<path style="fill:#737373; stroke:none;" d="M440 235L441 236L440 235z"/>
<path style="fill:#cdafae; stroke:none;" d="M452 235L453 236L452 235M112 236L113 237L112 236M130 236L131 237L130 236M164.333 236.667L164.667 237.333L164.333 236.667z"/>
<path style="fill:#737373; stroke:none;" d="M172 236L173 237L172 236z"/>
<path style="fill:#cdafae; stroke:none;" d="M195 236L196 237L195 236M213 236L214 237L213 236z"/>
<path style="fill:#737373; stroke:none;" d="M230 236L231 237L230 236z"/>
<path style="fill:#cdafae; stroke:none;" d="M247 236L248 237L247 236z"/>
<path style="fill:#737373; stroke:none;" d="M261 236L262 237L261 236M289 236L290 237L289 236M332 236L332 239L333 239L332 236M344.333 236.667L344.667 237.333L344.333 236.667M353 236L354 237L353 236z"/>
<path style="fill:#cdafae; stroke:none;" d="M369 236L370 237L369 236M381 236L382 237L381 236z"/>
<path style="fill:#737373; stroke:none;" d="M382 236L383 237L382 236z"/>
<path style="fill:#cdafae; stroke:none;" d="M400 236L401 237L400 236z"/>
<path style="fill:#737373; stroke:none;" d="M438 236L439 237L438 236M453 236L454 237L453 236z"/>
<path style="fill:#cdafae; stroke:none;" d="M113 237L114 238L113 237M153 237L154 238L153 237M161 237L162 238L161 237M194 237L195 238L194 237M204 237L205 238L204 237z"/>
<path style="fill:#737373; stroke:none;" d="M212 237L213 238L212 237z"/>
<path style="fill:#cdafae; stroke:none;" d="M231 237L232 238L231 237z"/>
<path style="fill:#737373; stroke:none;" d="M245 237L246 238L245 237z"/>
<path style="fill:#cdafae; stroke:none;" d="M246 237L247 238L246 237M262 237L263 238L262 237z"/>
<path style="fill:#737373; stroke:none;" d="M298 237L299 238L298 237M352 237L353 238L352 237z"/>
<path style="fill:#cdafae; stroke:none;" d="M370 237L371 238L370 237z"/>
<path style="fill:#737373; stroke:none;" d="M380 237L381 238L380 237z"/>
<path style="fill:#cdafae; stroke:none;" d="M401 237L402 238L401 237M436 237L437 238L436 237M51 238L52 239L51 238M114 238L115 239L114 238M131 238L132 239L131 238z"/>
<path style="fill:#737373; stroke:none;" d="M153 238L154 239L153 238M192 238L192 240L194 240L192 238M211 238L212 239L211 238M230 238L231 239L230 238z"/>
<path style="fill:#cdafae; stroke:none;" d="M288 238L289 239L288 238M298 238L299 239L298 238z"/>
<path style="fill:#737373; stroke:none;" d="M334 238L335 239L334 238z"/>
<path style="fill:#cdafae; stroke:none;" d="M344.333 238.667L344.667 239.333L344.333 238.667M371 238L372 239L371 238M379 238L380 239L379 238M435 238L436 239L435 238M115 239L116 240L115 239z"/>
<path style="fill:#737373; stroke:none;" d="M160.333 239.667L160.667 240.333L160.333 239.667M165 239L166 240L165 239z"/>
<path style="fill:#cdafae; stroke:none;" d="M173 239L174 240L173 239z"/>
<path style="fill:#737373; stroke:none;" d="M210 239L211 240L210 239M229 239L230 240L229 239z"/>
<path style="fill:#cdafae; stroke:none;" d="M263 239L264 240L263 239z"/>
<path style="fill:#737373; stroke:none;" d="M288 239L288 243L289 243L288 239M333 239L334 240L333 239M350 239L351 240L350 239M380 239L381 240L380 239M402 239L403 240L402 239M456 239L457 240L456 239z"/>
<path style="fill:#cdafae; stroke:none;" d="M50.3333 240.667L50.6667 241.333L50.3333 240.667M80 242L83 242L82 240L80 242M101 240L102 241L101 240M116 240L117 241L116 240M132 240L133 241L132 240M152 240L153 241L152 240M165 240L166 241L165 240z"/>
<path style="fill:#737373; stroke:none;" d="M173 240L174 241L173 240M203.333 240.667L203.667 241.333L203.333 240.667z"/>
<path style="fill:#cdafae; stroke:none;" d="M209 240L210 241L209 240z"/>
<path style="fill:#737373; stroke:none;" d="M263 240L264 241L263 240M297 240L298 241L297 240M349 240L350 241L349 240z"/>
<path style="fill:#cdafae; stroke:none;" d="M372 240L373 241L372 240M380 240L381 241L380 240z"/>
<path style="fill:#737373; stroke:none;" d="M434 240L435 241L434 240z"/>
<path style="fill:#cdafae; stroke:none;" d="M457 240L458 241L457 240M100.333 241.667L100.667 242.333L100.333 241.667M102 241L103 242L102 241M117.333 241.667L117.667 242.333L117.333 241.667z"/>
<path style="fill:#737373; stroke:none;" d="M152 241L153 242L152 241z"/>
<path style="fill:#cdafae; stroke:none;" d="M160 241L161 242L160 241z"/>
<path style="fill:#737373; stroke:none;" d="M220.667 241.333L221.333 241.667L220.667 241.333z"/>
<path style="fill:#cdafae; stroke:none;" d="M222 241L222 242L225 242L222 241z"/>
<path style="fill:#737373; stroke:none;" d="M225 241L226 242L225 241z"/>
<path style="fill:#cdafae; stroke:none;" d="M228 241L229 242L228 241z"/>
<path style="fill:#737373; stroke:none;" d="M250 241L250 242L253 242L250 241z"/>
<path style="fill:#cdafae; stroke:none;" d="M297 241L297 247L298 247L297 241z"/>
<path style="fill:#737373; stroke:none;" d="M343 241L344 242L343 241M358 241L359 242L358 241z"/>
<path style="fill:#cdafae; stroke:none;" d="M359 241L360 242L359 241z"/>
<path style="fill:#ffffff; stroke:none;" d="M356 245L366 245C363.236 240.285 359.287 241.288 356 245z"/>
<path style="fill:#cdafae; stroke:none;" d="M363 241L364 242L363 241z"/>
<path style="fill:#737373; stroke:none;" d="M364 241L365 242L364 241M381 241L382 242L381 241M387 241L388 242L387 241z"/>
<path style="fill:#cdafae; stroke:none;" d="M388 241L388 242L392 242L388 241z"/>
<path style="fill:#737373; stroke:none;" d="M392 241L393 242L392 241z"/>
<path style="fill:#cdafae; stroke:none;" d="M403 241L404 242L403 241M433 241L434 242L433 241z"/>
<path style="fill:#737373; stroke:none;" d="M443 241L444 242L443 241z"/>
<path style="fill:#ffffff; stroke:none;" d="M441 245L451 245C447.994 240.379 444.334 241.011 441 245z"/>
<path style="fill:#cdafae; stroke:none;" d="M448 241L449 242L448 241z"/>
<path style="fill:#737373; stroke:none;" d="M457 241L458 242L457 241z"/>
<path style="fill:#cdafae; stroke:none;" d="M49.3333 242.667L49.6667 243.333L49.3333 242.667M79 242L80 243L79 242M103 242L104 243L103 242M133 242L133 245L134 245L133 242M174 242L175 243L174 242z"/>
<path style="fill:#737373; stroke:none;" d="M197 242L198 243L197 242z"/>
<path style="fill:#cdafae; stroke:none;" d="M198 242L199 243L198 242z"/>
<path style="fill:#737373; stroke:none;" d="M208 242L209 243L208 242z"/>
<path style="fill:#cdafae; stroke:none;" d="M219 242L220 243L219 242M226.667 242.333L227.333 242.667L226.667 242.333z"/>
<path style="fill:#737373; stroke:none;" d="M248 242L249 243L248 242M254 242L255 243L254 242z"/>
<path style="fill:#cdafae; stroke:none;" d="M264 242L264 246L265 246L264 242z"/>
<path style="fill:#737373; stroke:none;" d="M337 242L338 243L337 242z"/>
<path style="fill:#cdafae; stroke:none;" d="M338 242L339 243L338 242z"/>
<path style="fill:#737373; stroke:none;" d="M348 242L349 243L348 242z"/>
<path style="fill:#cdafae; stroke:none;" d="M357 242L358 243L357 242z"/>
<path style="fill:#737373; stroke:none;" d="M365 242L366 243L365 242z"/>
<path style="fill:#cdafae; stroke:none;" d="M373 242L374 243L373 242z"/>
<path style="fill:#737373; stroke:none;" d="M384 242L385 243L384 242z"/>
<path style="fill:#cdafae; stroke:none;" d="M385 242L386 243L385 242z"/>
<path style="fill:#737373; stroke:none;" d="M394 242L395 243L394 242M403 242L404 243L403 242z"/>
<path style="fill:#cdafae; stroke:none;" d="M442 242L443 243L442 242M78 243L79 244L78 243M81.3333 243.667L81.6667 244.333L81.3333 243.667M101 243L102 255L103 255L101 243M104 243L105 244L104 243M118 243L119 244L118 243M151 243L152 244L151 243z"/>
<path style="fill:#737373; stroke:none;" d="M159 243L160 244L159 243M166 243L167 244L166 243M174 243L175 244L174 243z"/>
<path style="fill:#cdafae; stroke:none;" d="M196 243L197 244L196 243M247 243L248 244L247 243z"/>
<path style="fill:#737373; stroke:none;" d="M336 243L337 244L336 243M356 243L357 244L356 243M373.333 243.667L373.667 244.333L373.333 243.667z"/>
<path style="fill:#cdafae; stroke:none;" d="M382.667 243.333L383.333 243.667L382.667 243.333M432 243L433 244L432 243M441 243L442 244L441 243M450 243L451 244L450 243M458 243L459 244L458 243M48 244L48 249L49 249L48 244M77 244L78 245L77 244M105 244L106 245L105 244M119.333 244.667L119.667 245.333L119.333 244.667z"/>
<path style="fill:#737373; stroke:none;" d="M151 244L152 245L151 244z"/>
<path style="fill:#cdafae; stroke:none;" d="M159.333 244.667L159.667 245.333L159.333 244.667M166 244L167 245L166 244M195 244L196 245L195 244M207 244L208 245L207 244M217 244L218 245L217 244M246 244L247 245L246 244z"/>
<path style="fill:#737373; stroke:none;" d="M255 244L255 264L256 264L255 244M335 244L336 245L335 244z"/>
<path style="fill:#cdafae; stroke:none;" d="M347 244L348 245L347 244z"/>
<path style="fill:#737373; stroke:none;" d="M366.333 244.667L366.667 245.333L366.333 244.667M432 244L433 245L432 244M458 244L458 252L459 252L458 244z"/>
<path style="fill:#cdafae; stroke:none;" d="M76 245L77 246L76 245M106 245L107 246L106 245M134 245L134 248L135 248L134 245M175 245L176 246L175 245z"/>
<path style="fill:#737373; stroke:none;" d="M194 245L195 246L194 245M207.333 245.667L207.667 246.333L207.333 245.667M347.333 245.667L347.667 246.333L347.333 245.667z"/>
<path style="fill:#cdafae; stroke:none;" d="M356 245L356 246L366 246L356 245M391 245L391 246L394 246L391 245z"/>
<path style="fill:#737373; stroke:none;" d="M394 245L395 246L394 245M440 245L441 246L440 245z"/>
<path style="fill:#cdafae; stroke:none;" d="M441 245L441 246L451 246L441 245M75 246L76 247L75 246M107 246L108 247L107 246M120 246L120 249L121 249L120 246M150 246L151 247L150 246z"/>
<path style="fill:#737373; stroke:none;" d="M175 246L176 247L175 246M216 246L217 247L216 246M264 246L264 264L265 264L264 246M288 246L288 249L289 249L288 246z"/>
<path style="fill:#cdafae; stroke:none;" d="M334 246L335 247L334 246M387 246L388 247L387 246z"/>
<path style="fill:#737373; stroke:none;" d="M388.667 246.333L389.333 246.667L388.667 246.333z"/>
<path style="fill:#cdafae; stroke:none;" d="M404 246L404 264L405 264L404 246M74 247L75 248L74 247M80 247L80 253L81 253L80 247M108 247L109 248L108 247z"/>
<path style="fill:#737373; stroke:none;" d="M150.333 247.667L150.667 248.333L150.333 247.667M193 247L193 264L194 264L193 247z"/>
<path style="fill:#cdafae; stroke:none;" d="M216 247L216 251L217 251L216 247z"/>
<path style="fill:#737373; stroke:none;" d="M297 247L298 248L297 247z"/>
<path style="fill:#cdafae; stroke:none;" d="M384 247L385 248L384 247z"/>
<path style="fill:#737373; stroke:none;" d="M385 247L386 248L385 247z"/>
<path style="fill:#cdafae; stroke:none;" d="M73 248L70 253L73 248M176 248L177 249L176 248M382 248L383 249L382 248M431 248L431 251L432 251L431 248M121 249L121 259L122 259L121 249z"/>
<path style="fill:#737373; stroke:none;" d="M176 249L177 250L176 249z"/>
<path style="fill:#cdafae; stroke:none;" d="M288 249L289 250L288 249z"/>
<path style="fill:#737373; stroke:none;" d="M381 249L382 250L381 249z"/>
<path style="fill:#cdafae; stroke:none;" d="M47 250L47 258L48 258L47 250M61 250L61 254L62 254L61 250M149 250L150 251L149 250z"/>
<path style="fill:#737373; stroke:none;" d="M298 250L299 251L298 250M380 250L381 251L380 250M391.667 250.333L392.333 250.667L391.667 250.333z"/>
<path style="fill:#cdafae; stroke:none;" d="M393.667 250.333L394.333 250.667L393.667 250.333z"/>
<path style="fill:#737373; stroke:none;" d="M395 250L394 256L395 256L395 250z"/>
<path style="fill:#cdafae; stroke:none;" d="M111 251L112 252L111 251M135 251L135 258L136 258L135 251z"/>
<path style="fill:#737373; stroke:none;" d="M149 251L150 252L149 251z"/>
<path style="fill:#cdafae; stroke:none;" d="M177 251L178 252L177 251z"/>
<path style="fill:#737373; stroke:none;" d="M216 251L217 252L216 251M289.333 251.667L289.667 252.333L289.333 251.667M373 251L374 252L373 251M379 251L380 252L379 251z"/>
<path style="fill:#cdafae; stroke:none;" d="M389 251L390 252L389 251z"/>
<path style="fill:#ffffff; stroke:none;" d="M387 256C391.614 257.115 394.219 255.786 395 251C390.819 251.231 388.547 251.956 387 256z"/>
<path style="fill:#cdafae; stroke:none;" d="M112 252L113 253L112 252z"/>
<path style="fill:#737373; stroke:none;" d="M177.333 252.667L177.667 253.333L177.333 252.667M207 252L208 253L207 252M299 252L300 253L299 252M347 252L348 253L347 252M387 252L388 253L387 252M440 252L441 253L440 252z"/>
<path style="fill:#cdafae; stroke:none;" d="M69 253L70 254L69 253M113 253L114 254L113 253M148 253L149 254L148 253M207 253L208 254L207 253M217 253L218 254L217 253z"/>
<path style="fill:#737373; stroke:none;" d="M300 253L301 254L300 253M314 253L315 254L314 253z"/>
<path style="fill:#cdafae; stroke:none;" d="M347 253L348 254L347 253M356 253L357 254L356 253M378 253L379 254L378 253M387 253L388 254L387 253z"/>
<path style="fill:#737373; stroke:none;" d="M412 253L412 256L413 256L412 253z"/>
<path style="fill:#cdafae; stroke:none;" d="M421.333 253.667L421.667 254.333L421.333 253.667z"/>
<path style="fill:#737373; stroke:none;" d="M432 253L433 254L432 253z"/>
<path style="fill:#cdafae; stroke:none;" d="M68.3333 254.667L68.6667 255.333L68.3333 254.667z"/>
<path style="fill:#737373; stroke:none;" d="M148 254L149 255L148 254M169.333 254.667L169.667 255.333L169.333 254.667M290 254L291 255L290 254M301 254L302 255L301 254z"/>
<path style="fill:#cdafae; stroke:none;" d="M312 254L313 255L312 254z"/>
<path style="fill:#737373; stroke:none;" d="M313 254L314 255L313 254M378 254L378 258L379 258L378 254z"/>
<path style="fill:#cdafae; stroke:none;" d="M432 254L433 255L432 254z"/>
<path style="fill:#737373; stroke:none;" d="M441 254L442 255L441 254z"/>
<path style="fill:#cdafae; stroke:none;" d="M61 255L61 259L62 259L61 255M101 255L101 258L102 258L101 255z"/>
<path style="fill:#737373; stroke:none;" d="M156 255L157 256L156 255z"/>
<path style="fill:#cdafae; stroke:none;" d="M178 255L179 256L178 255z"/>
<path style="fill:#737373; stroke:none;" d="M208 255L209 256L208 255z"/>
<path style="fill:#cdafae; stroke:none;" d="M219 255L220 256L219 255z"/>
<path style="fill:#737373; stroke:none;" d="M227.667 255.333L228.333 255.667L227.667 255.333M303 255L304 256L303 255z"/>
<path style="fill:#cdafae; stroke:none;" d="M310 255L311 256L310 255z"/>
<path style="fill:#737373; stroke:none;" d="M311 255L312 256L311 255M316 255L317 256L316 255M348 255L349 256L348 255z"/>
<path style="fill:#cdafae; stroke:none;" d="M358 255L359 256L358 255M369 255L370 256L369 255z"/>
<path style="fill:#737373; stroke:none;" d="M442 255L443 256L442 255z"/>
<path style="fill:#cdafae; stroke:none;" d="M454 255L455 256L454 255M81.3333 256.667L81.6667 257.333L81.3333 256.667M147 256L148 257L147 256M156 256L157 257L156 256M169 256L170 257L169 256z"/>
<path style="fill:#737373; stroke:none;" d="M178 256L179 257L178 256z"/>
<path style="fill:#cdafae; stroke:none;" d="M208 256L209 257L208 256z"/>
<path style="fill:#737373; stroke:none;" d="M220 256L221 257L220 256z"/>
<path style="fill:#cdafae; stroke:none;" d="M221 256L221 257L224 257L221 256z"/>
<path style="fill:#737373; stroke:none;" d="M224.667 256.333L225.333 256.667L224.667 256.333z"/>
<path style="fill:#cdafae; stroke:none;" d="M229 256L230 257L229 256M291 256L292 257L291 256z"/>
<path style="fill:#737373; stroke:none;" d="M307 256L308 257L307 256M317 256L318 257L317 256z"/>
<path style="fill:#cdafae; stroke:none;" d="M348 256L349 257L348 256z"/>
<path style="fill:#737373; stroke:none;" d="M359 256L360 257L359 256z"/>
<path style="fill:#cdafae; stroke:none;" d="M360 256L361 257L360 256M366 256L367 257L366 256z"/>
<path style="fill:#737373; stroke:none;" d="M367 256L368 257L367 256M370 256L371 257L370 256z"/>
<path style="fill:#cdafae; stroke:none;" d="M392 256L393 257L392 256M412 256L413 257L412 256M423 256L424 257L423 256M427 256L428 257L427 256z"/>
<path style="fill:#737373; stroke:none;" d="M433 256L434 257L433 256M444 256L445 257L444 256z"/>
<path style="fill:#cdafae; stroke:none;" d="M445 256L446 257L445 256M451 256L452 257L451 256z"/>
<path style="fill:#737373; stroke:none;" d="M452 256L453 257L452 256z"/>
<path style="fill:#cdafae; stroke:none;" d="M455 256L456 257L455 256M69 257L69 263L70 263L69 257z"/>
<path style="fill:#737373; stroke:none;" d="M113.333 257.667L113.667 258.333L113.333 257.667M147 257L148 258L147 257M209 257L210 258L209 257M292 257L293 258L292 257M318 257L319 258L318 257M349 257L350 258L349 257z"/>
<path style="fill:#cdafae; stroke:none;" d="M371 257L372 258L371 257M389 257L390 258L389 257z"/>
<path style="fill:#737373; stroke:none;" d="M390 257L391 258L390 257z"/>
<path style="fill:#cdafae; stroke:none;" d="M100.333 258.667L100.667 259.333L100.333 258.667z"/>
<path style="fill:#737373; stroke:none;" d="M170.333 258.667L170.667 259.333L170.333 258.667z"/>
<path style="fill:#cdafae; stroke:none;" d="M179 258L180 259L179 258z"/>
<path style="fill:#737373; stroke:none;" d="M230 258L231 259L230 258M293 258L294 259L293 258M371 258L372 259L371 258z"/>
<path style="fill:#cdafae; stroke:none;" d="M378 258L379 259L378 258z"/>
<path style="fill:#737373; stroke:none;" d="M413 258L414 259L413 258z"/>
<path style="fill:#cdafae; stroke:none;" d="M428 258L429 259L428 258M434 258L435 259L434 258z"/>
<path style="fill:#737373; stroke:none;" d="M456 258L457 259L456 258z"/>
<path style="fill:#cdafae; stroke:none;" d="M82 259L83 260L82 259M113 259L113 262L114 262L113 259M146 259L147 260L146 259z"/>
<path style="fill:#737373; stroke:none;" d="M155 259L156 260L155 259M179 259L180 260L179 259z"/>
<path style="fill:#cdafae; stroke:none;" d="M231 259L232 260L231 259z"/>
<path style="fill:#737373; stroke:none;" d="M294 259L295 260L294 259z"/>
<path style="fill:#cdafae; stroke:none;" d="M372 259L373 260L372 259M413 259L414 260L413 259z"/>
<path style="fill:#737373; stroke:none;" d="M428 259L429 260L428 259z"/>
<path style="fill:#cdafae; stroke:none;" d="M435 259L436 260L435 259M48 260L48 264L49 264L48 260M62.3333 260.667L62.6667 261.333L62.3333 260.667M120.333 260.667L120.667 261.333L120.333 260.667z"/>
<path style="fill:#737373; stroke:none;" d="M146 260L147 261L146 260z"/>
<path style="fill:#cdafae; stroke:none;" d="M155 260L156 261L155 260M170 260L171 261L170 260M211 260L212 261L211 260z"/>
<path style="fill:#737373; stroke:none;" d="M231 260L232 261L231 260z"/>
<path style="fill:#cdafae; stroke:none;" d="M295 260L296 261L295 260z"/>
<path style="fill:#737373; stroke:none;" d="M316 260L317 261L316 260M372 260L373 261L372 260M379 260L380 261L379 260M395.667 260.333L396.333 260.667L395.667 260.333M414 260L415 261L414 260z"/>
<path style="fill:#cdafae; stroke:none;" d="M436 260L437 261L436 260z"/>
<path style="fill:#737373; stroke:none;" d="M457 260L458 261L457 260z"/>
<path style="fill:#cdafae; stroke:none;" d="M83 261L84 262L83 261M99 261L100 262L99 261M134.333 261.667L134.667 262.333L134.333 261.667M180 261L181 262L180 261z"/>
<path style="fill:#737373; stroke:none;" d="M213 261L214 262L213 261z"/>
<path style="fill:#cdafae; stroke:none;" d="M230 261L231 262L230 261M296 261L297 262L296 261z"/>
<path style="fill:#737373; stroke:none;" d="M297 261L298 262L297 261z"/>
<path style="fill:#cdafae; stroke:none;" d="M315 261L316 262L315 261z"/>
<path style="fill:#737373; stroke:none;" d="M353 261L354 262L353 261M371 261L372 262L371 261M380 261L381 262L380 261z"/>
<path style="fill:#cdafae; stroke:none;" d="M394 261L395 262L394 261M396.333 261.667L396.667 262.333L396.333 261.667z"/>
<path style="fill:#737373; stroke:none;" d="M415 261L416 262L415 261M438 261L439 262L438 261z"/>
<path style="fill:#cdafae; stroke:none;" d="M456 261L457 262L456 261M98.3333 262.667L98.6667 263.333L98.3333 262.667M119.333 262.667L119.667 263.333L119.333 262.667z"/>
<path style="fill:#737373; stroke:none;" d="M180 262L181 263L180 262z"/>
<path style="fill:#cdafae; stroke:none;" d="M214 262L215 263L214 262z"/>
<path style="fill:#737373; stroke:none;" d="M215 262L216 263L215 262M228 262L229 263L228 262z"/>
<path style="fill:#cdafae; stroke:none;" d="M298 262L299 263L298 262z"/>
<path style="fill:#737373; stroke:none;" d="M299 262L300 263L299 262M313 262L314 263L313 262M355 262L356 263L355 262z"/>
<path style="fill:#cdafae; stroke:none;" d="M369 262L370 263L369 262z"/>
<path style="fill:#737373; stroke:none;" d="M381 262L382 263L381 262M392 262L393 263L392 262z"/>
<path style="fill:#cdafae; stroke:none;" d="M416 262L417 263L416 262M429 262L430 263L429 262M439 262L440 263L439 262z"/>
<path style="fill:#737373; stroke:none;" d="M440 262L441 263L440 262M453 262L454 263L453 262z"/>
<path style="fill:#cdafae; stroke:none;" d="M454 262L455 263L454 262M63 263L64 264L63 263M70 263L70 266L71 266L70 263M84 263L85 264L84 263M112.333 263.667L112.667 264.333L112.333 263.667M145 263L146 264L145 263z"/>
<path style="fill:#737373; stroke:none;" d="M154 263L155 264L154 263M171 263L172 264L171 263z"/>
<path style="fill:#cdafae; stroke:none;" d="M217 263L218 264L217 263z"/>
<path style="fill:#737373; stroke:none;" d="M218.667 263.333L219.333 263.667L218.667 263.333M224.667 263.333L225.333 263.667L224.667 263.333z"/>
<path style="fill:#cdafae; stroke:none;" d="M226 263L227 264L226 263M301 263L302 264L301 263z"/>
<path style="fill:#737373; stroke:none;" d="M302 263L302 264L305 264L302 263M309.667 263.333L310.333 263.667L309.667 263.333z"/>
<path style="fill:#cdafae; stroke:none;" d="M311 263L312 264L311 263M357 263L358 264L357 263z"/>
<path style="fill:#737373; stroke:none;" d="M358.667 263.333L359.333 263.667L358.667 263.333M365 263L366 264L365 263z"/>
<path style="fill:#cdafae; stroke:none;" d="M366.667 263.333L367.333 263.667L366.667 263.333z"/>
<path style="fill:#737373; stroke:none;" d="M382 263L383 264L382 263M389 263L390 264L389 263z"/>
<path style="fill:#cdafae; stroke:none;" d="M390 263L391 264L390 263M418 263L419 264L418 263z"/>
<path style="fill:#737373; stroke:none;" d="M419 263L420 264L419 263M425.667 263.333L426.333 263.667L425.667 263.333z"/>
<path style="fill:#cdafae; stroke:none;" d="M427 263L428 264L427 263M442 263L443 264L442 263z"/>
<path style="fill:#737373; stroke:none;" d="M443.667 263.333L444.333 263.667L443.667 263.333M449.667 263.333L450.333 263.667L449.667 263.333z"/>
<path style="fill:#cdafae; stroke:none;" d="M451 263L452 264L451 263M49 264L49 267L50 267L49 264M85 264L86 265L85 264M97 264L98 265L97 264M118.333 264.667L118.667 265.333L118.333 264.667M133.333 264.667L133.667 265.333L133.333 264.667M384 264L385 265L384 264z"/>
<path style="fill:#737373; stroke:none;" d="M385.667 264.333L386.333 264.667L385.667 264.333z"/>
<path style="fill:#cdafae; stroke:none;" d="M387 264L388 265L387 264M64 265L65 266L64 265M96.3333 265.667L96.6667 266.333L96.3333 265.667M65 266L66 267L65 266M71.3333 266.667L71.6667 267.333L71.3333 266.667M86 266L87 267L86 266M111.333 266.667L111.667 267.333L111.333 266.667M117 266L118 267L117 266M50.3333 267.667L50.6667 268.333L50.3333 267.667M66 267L67 268L66 267M87 267L88 268L87 267M95 267L96 268L95 267M116 267L117 268L116 267M132 267L133 268L132 267M67 268L68 269L67 268M72.3333 268.667L72.6667 269.333L72.3333 268.667M88.6667 268.333L89.3333 268.667L88.6667 268.333M93.6667 268.333L94.3333 268.667L93.6667 268.333M110.333 268.667L110.667 269.333L110.333 268.667M115 268L116 269L115 268M51 269L52 270L51 269M68 269L69 270L68 269M90 269L90 270L93 270L90 269M114 269L115 270L114 269M131 269L132 270L131 269M69 270L70 271L69 270M73 270L72 273L73 270M109 270L109 273L110 273L109 270M112.667 270.333L113.333 270.667L112.667 270.333M52 271L53 272L52 271M70.6667 271.333L71.3333 271.667L70.6667 271.333M111 271L112 272L111 271M130 271L131 272L130 271M53 272L54 273L53 272M129.333 272.667L129.667 273.333L129.333 272.667M54 274L55 275L54 274M128 274L129 275L128 274M55 275L56 276L55 275M127 275L128 276L127 275M56 276L57 277L56 276M126 276L127 277L126 276M57 277L58 278L57 277M125 277L126 278L125 277M58 278L59 279L58 278M124 278L125 279L124 278M59 279L60 280L59 279M123 279L124 280L123 279M60 280L61 281L60 280M122 280L123 281L122 280M61.6667 281.333L62.3333 281.667L61.6667 281.333M120.667 281.333L121.333 281.667L120.667 281.333M63 282L64 283L63 282M119 282L120 283L119 282M65 283L65 284L68 284L65 283M115 283L115 284L118 284L115 283z"/>
</svg>
